<?xml version="1.0" encoding="utf-8"?>
<!-- Generator: Adobe Illustrator 21.1.0, SVG Export Plug-In . SVG Version: 6.00 Build 0)  -->
<svg version="1.1" id="Layer_1" xmlns="http://www.w3.org/2000/svg" xmlns:xlink="http://www.w3.org/1999/xlink" x="0px" y="0px"
	 viewBox="0 0 141.7 141.7" style="enable-background:new 0 0 141.7 141.7;" xml:space="preserve">
<style type="text/css">
	.st0{fill:#010101;}
</style>
<path style="fill: #FF5722;" class="st0" d="M45.5,18.8c7.4,0,15.9,4.7,25.4,14c4-4.1,8.2-7.4,12.6-10c4.4-2.6,8.6-3.9,12.6-3.9c4.4,0,8.5,0.8,12.2,2.4
	c3.7,1.6,7.2,4.1,10.5,7.4c6.6,6.5,9.9,14.5,9.9,23.8c0,9.3-3.3,17.3-9.9,23.9c-0.3,0.2-13.8,14.7-40.4,43.5
	c-2.1,2.1-4.6,3.2-7.6,3.2c-3,0-5.5-1.1-7.5-3.2c-5.1-5.6-9.5-10.4-13.2-14.5c-3.7-4.1-7.5-8.3-11.3-12.5c-3.8-4.2-7.2-8-10.3-11.3
	c-3-3.3-4.9-5.4-5.6-6c-3.2-3.2-5.7-7-7.4-11.2C13.9,60,13,55.8,13,51.5c0-4.2,0.8-8.5,2.5-12.7c1.7-4.2,4.2-7.9,7.4-11.2
	c3.1-3.1,6.5-5.3,10.3-6.8C37,19.5,41.1,18.8,45.5,18.8z"/>
</svg>
